<svg xmlns="http://www.w3.org/2000/svg" xmlns:xlink="http://www.w3.org/1999/xlink" width="500" zoomAndPan="magnify" viewBox="0 0 375 374.999991" height="500" preserveAspectRatio="xMidYMid meet" version="1.0"><defs><filter x="0%" y="0%" width="100%" height="100%" id="16ece0b32a"><feColorMatrix values="0 0 0 0 1 0 0 0 0 1 0 0 0 0 1 0 0 0 1 0" color-interpolation-filters="sRGB"/></filter><g/><mask id="27cc3f5570"><g filter="url(#16ece0b32a)"><rect x="-37.5" width="450" fill="#000000" y="-37.499999" height="449.999989" fill-opacity="0.4"/></g></mask><clipPath id="e3a4780e39"><path d="M 0.761719 0.875 L 98 0.875 L 98 13 L 0.761719 13 Z M 0.761719 0.875 " clip-rule="nonzero"/></clipPath><clipPath id="587992e8a9"><path d="M 0.761719 15 L 136.28125 15 L 136.28125 27 L 0.761719 27 Z M 0.761719 15 " clip-rule="nonzero"/></clipPath><clipPath id="1895bc9c01"><path d="M 34 29 L 136.28125 29 L 136.28125 41 L 34 41 Z M 34 29 " clip-rule="nonzero"/></clipPath><clipPath id="7585d88932"><path d="M 0.761719 30 L 8 30 L 8 34 L 0.761719 34 Z M 0.761719 30 " clip-rule="nonzero"/></clipPath><clipPath id="8173f37af8"><path d="M 0.761719 43 L 136.28125 43 L 136.28125 55 L 0.761719 55 Z M 0.761719 43 " clip-rule="nonzero"/></clipPath><clipPath id="115ef91b70"><path d="M 130 64 L 136.28125 64 L 136.28125 68 L 130 68 Z M 130 64 " clip-rule="nonzero"/></clipPath><clipPath id="557b631f87"><path d="M 0.761719 57 L 110 57 L 110 69 L 0.761719 69 Z M 0.761719 57 " clip-rule="nonzero"/></clipPath><clipPath id="84251b6bb7"><rect x="0" width="137" y="0" height="70"/></clipPath></defs><g mask="url(#27cc3f5570)"><g transform="matrix(1, 0, 0, 1, 119, 144)"><g clip-path="url(#84251b6bb7)"><path fill="#c95726" d="M 118.828125 6.253906 C 118.75 6.253906 118.675781 6.246094 118.597656 6.222656 L 114.1875 5.09375 C 113.691406 4.96875 113.390625 4.460938 113.515625 3.964844 C 113.644531 3.46875 114.144531 3.167969 114.648438 3.296875 L 119.058594 4.425781 C 119.554688 4.550781 119.855469 5.058594 119.726562 5.554688 C 119.621094 5.976562 119.242188 6.253906 118.828125 6.253906 Z M 118.828125 6.253906 " fill-opacity="1" fill-rule="nonzero"/><path fill="#c95726" d="M 106.675781 3.46875 C 106.632812 3.46875 106.589844 3.46875 106.546875 3.460938 C 104.796875 3.21875 102.917969 3.035156 100.960938 2.921875 C 100.449219 2.894531 100.058594 2.453125 100.085938 1.941406 C 100.117188 1.429688 100.550781 1.046875 101.070312 1.066406 C 103.074219 1.183594 105.003906 1.371094 106.800781 1.621094 C 107.308594 1.691406 107.664062 2.160156 107.59375 2.667969 C 107.527344 3.132812 107.128906 3.46875 106.675781 3.46875 Z M 106.675781 3.46875 " fill-opacity="1" fill-rule="nonzero"/><path fill="#c95726" d="M 130.484375 9.238281 C 130.40625 9.238281 130.332031 9.226562 130.253906 9.207031 L 125.976562 8.113281 C 125.480469 7.988281 125.179688 7.480469 125.308594 6.984375 C 125.433594 6.484375 125.9375 6.183594 126.4375 6.3125 L 130.714844 7.40625 C 131.210938 7.535156 131.511719 8.039062 131.382812 8.539062 C 131.277344 8.957031 130.898438 9.238281 130.484375 9.238281 Z M 130.484375 9.238281 " fill-opacity="1" fill-rule="nonzero"/><g clip-path="url(#e3a4780e39)"><path fill="#c95726" d="M 41 12.132812 C 35.222656 12.132812 29.449219 11.570312 25.050781 10.445312 L 1.46875 4.410156 C 0.96875 4.285156 0.671875 3.777344 0.796875 3.28125 C 0.925781 2.785156 1.429688 2.480469 1.929688 2.609375 L 25.511719 8.644531 C 34.054688 10.832031 47.953125 10.832031 56.492188 8.644531 L 80.070312 2.609375 C 84.496094 1.476562 90.382812 0.882812 96.65625 0.925781 C 97.167969 0.929688 97.582031 1.347656 97.578125 1.859375 C 97.574219 2.371094 97.160156 2.78125 96.648438 2.78125 C 96.644531 2.78125 96.644531 2.78125 96.640625 2.78125 C 90.628906 2.734375 84.742188 3.332031 80.53125 4.410156 L 56.953125 10.445312 C 52.554688 11.570312 46.777344 12.132812 41 12.132812 Z M 41 12.132812 " fill-opacity="1" fill-rule="nonzero"/></g><g clip-path="url(#587992e8a9)"><path fill="#c95726" d="M 41 26.308594 C 35.222656 26.308594 29.449219 25.746094 25.050781 24.621094 L 1.46875 18.585938 C 0.96875 18.460938 0.671875 17.953125 0.796875 17.457031 C 0.925781 16.960938 1.429688 16.65625 1.929688 16.789062 L 25.511719 22.824219 C 34.054688 25.007812 47.953125 25.007812 56.492188 22.820312 L 80.070312 16.789062 C 88.867188 14.535156 103.175781 14.535156 111.972656 16.789062 L 135.550781 22.820312 C 136.046875 22.949219 136.347656 23.457031 136.21875 23.953125 C 136.09375 24.449219 135.589844 24.75 135.089844 24.621094 L 111.511719 18.585938 C 102.96875 16.402344 89.074219 16.402344 80.53125 18.585938 L 56.953125 24.621094 C 52.554688 25.746094 46.777344 26.308594 41 26.308594 Z M 41 26.308594 " fill-opacity="1" fill-rule="nonzero"/></g><g clip-path="url(#1895bc9c01)"><path fill="#c95726" d="M 40.96875 40.488281 C 39.007812 40.488281 37.035156 40.421875 35.097656 40.289062 C 34.585938 40.253906 34.199219 39.808594 34.234375 39.296875 C 34.269531 38.785156 34.707031 38.398438 35.226562 38.433594 C 42.832031 38.957031 50.984375 38.40625 56.492188 37 L 80.070312 30.964844 C 88.867188 28.714844 103.175781 28.714844 111.972656 30.964844 L 135.550781 37 C 136.046875 37.125 136.347656 37.632812 136.21875 38.128906 C 136.09375 38.625 135.585938 38.925781 135.089844 38.796875 L 111.507812 32.765625 C 102.96875 30.578125 89.070312 30.578125 80.53125 32.765625 L 56.953125 38.796875 C 52.679688 39.894531 46.890625 40.488281 40.96875 40.488281 Z M 40.96875 40.488281 " fill-opacity="1" fill-rule="nonzero"/></g><path fill="#c95726" d="M 22.503906 38.117188 C 22.425781 38.117188 22.347656 38.109375 22.273438 38.089844 L 14.378906 36.066406 C 13.882812 35.941406 13.582031 35.433594 13.710938 34.9375 C 13.835938 34.441406 14.339844 34.136719 14.839844 34.269531 L 22.734375 36.289062 C 23.230469 36.414062 23.53125 36.921875 23.402344 37.417969 C 23.292969 37.839844 22.917969 38.117188 22.503906 38.117188 Z M 22.503906 38.117188 " fill-opacity="1" fill-rule="nonzero"/><g clip-path="url(#7585d88932)"><path fill="#c95726" d="M 6.277344 33.964844 C 6.199219 33.964844 6.125 33.957031 6.046875 33.9375 L 1.46875 32.765625 C 0.96875 32.636719 0.671875 32.128906 0.796875 31.632812 C 0.925781 31.136719 1.429688 30.835938 1.929688 30.964844 L 6.507812 32.136719 C 7.003906 32.261719 7.304688 32.769531 7.175781 33.265625 C 7.070312 33.6875 6.691406 33.964844 6.277344 33.964844 Z M 6.277344 33.964844 " fill-opacity="1" fill-rule="nonzero"/></g><g clip-path="url(#8173f37af8)"><path fill="#c95726" d="M 41.003906 54.664062 C 35.226562 54.664062 29.449219 54.101562 25.050781 52.976562 L 1.46875 46.941406 C 0.96875 46.816406 0.671875 46.308594 0.796875 45.8125 C 0.925781 45.3125 1.429688 45.011719 1.929688 45.140625 L 25.511719 51.175781 C 34.054688 53.363281 47.953125 53.363281 56.492188 51.175781 L 80.070312 45.140625 C 88.867188 42.890625 103.175781 42.890625 111.972656 45.140625 L 135.550781 51.175781 C 136.046875 51.300781 136.347656 51.808594 136.21875 52.304688 C 136.09375 52.804688 135.589844 53.105469 135.089844 52.976562 L 111.511719 46.941406 C 102.96875 44.757812 89.074219 44.757812 80.53125 46.941406 L 56.953125 52.976562 C 52.554688 54.101562 46.777344 54.664062 41.003906 54.664062 Z M 41.003906 54.664062 " fill-opacity="1" fill-rule="nonzero"/></g><g clip-path="url(#115ef91b70)"><path fill="#c95726" d="M 135.320312 67.183594 C 135.242188 67.183594 135.167969 67.171875 135.089844 67.152344 L 131.207031 66.160156 C 130.710938 66.03125 130.410156 65.527344 130.539062 65.027344 C 130.664062 64.53125 131.167969 64.230469 131.667969 64.359375 L 135.550781 65.351562 C 136.046875 65.480469 136.347656 65.984375 136.21875 66.484375 C 136.113281 66.902344 135.734375 67.183594 135.320312 67.183594 Z M 135.320312 67.183594 " fill-opacity="1" fill-rule="nonzero"/></g><path fill="#c95726" d="M 126.890625 65.023438 C 126.8125 65.023438 126.738281 65.015625 126.660156 64.996094 L 115.363281 62.105469 C 114.867188 61.976562 114.566406 61.472656 114.695312 60.972656 C 114.820312 60.476562 115.324219 60.175781 115.824219 60.304688 L 127.121094 63.195312 C 127.617188 63.320312 127.917969 63.828125 127.789062 64.324219 C 127.683594 64.746094 127.304688 65.023438 126.890625 65.023438 Z M 126.890625 65.023438 " fill-opacity="1" fill-rule="nonzero"/><g clip-path="url(#557b631f87)"><path fill="#c95726" d="M 41 68.839844 C 35.222656 68.839844 29.449219 68.277344 25.050781 67.152344 L 1.46875 61.117188 C 0.96875 60.992188 0.671875 60.484375 0.796875 59.988281 C 0.925781 59.492188 1.429688 59.1875 1.929688 59.316406 L 25.511719 65.351562 C 34.054688 67.539062 47.953125 67.539062 56.492188 65.351562 L 80.070312 59.316406 C 87.878906 57.320312 100.070312 57.054688 109.0625 58.6875 C 109.566406 58.78125 109.902344 59.265625 109.808594 59.769531 C 109.71875 60.273438 109.238281 60.613281 108.730469 60.515625 C 100.109375 58.953125 87.988281 59.210938 80.53125 61.117188 L 56.953125 67.152344 C 52.554688 68.277344 46.777344 68.839844 41 68.839844 Z M 41 68.839844 " fill-opacity="1" fill-rule="nonzero"/></g></g></g></g><g fill="#c95726" fill-opacity="1"><g transform="translate(141.371832, 187.505721)"><g><path d="M 23.328125 -1.359375 C 24.898438 -1.359375 26.257812 -1.519531 27.40625 -1.84375 C 28.550781 -2.175781 29.125 -2.738281 29.125 -3.53125 L 29.125 -62.578125 L 9.40625 -62.578125 C 8.738281 -62.578125 8.101562 -62.257812 7.5 -61.625 C 6.90625 -61 6.394531 -60.335938 5.96875 -59.640625 C 5.539062 -58.953125 5.300781 -58.546875 5.25 -58.421875 L 4.515625 -58.421875 L 4.515625 -63.9375 L 56.890625 -63.9375 L 56.890625 -58.421875 L 56.15625 -58.421875 C 56.101562 -58.546875 55.863281 -58.953125 55.4375 -59.640625 C 55.019531 -60.335938 54.507812 -61 53.90625 -61.625 C 53.300781 -62.257812 52.664062 -62.578125 52 -62.578125 L 32.28125 -62.578125 L 32.28125 -3.53125 C 32.28125 -2.738281 32.867188 -2.175781 34.046875 -1.84375 C 35.222656 -1.519531 36.597656 -1.359375 38.171875 -1.359375 L 38.171875 0 L 23.328125 0 Z M 23.328125 -1.359375 "/></g></g></g><g fill="#c95726" fill-opacity="1"><g transform="translate(171.814198, 212.294633)"><g><path d="M 31.46875 0.8125 C 27.375 0.8125 23.726562 -0.132812 20.53125 -2.03125 C 17.332031 -3.9375 14.828125 -6.59375 13.015625 -10 C 11.210938 -13.40625 10.3125 -17.394531 10.3125 -21.96875 L 10.3125 -60.6875 C 10.25 -61.40625 9.675781 -61.898438 8.59375 -62.171875 C 7.507812 -62.441406 6.546875 -62.609375 5.703125 -62.671875 L 4.515625 -62.671875 L 4.515625 -64.03125 L 19.359375 -64.03125 L 19.359375 -62.671875 L 18.171875 -62.671875 C 17.390625 -62.609375 16.441406 -62.441406 15.328125 -62.171875 C 14.210938 -61.898438 13.625 -61.375 13.5625 -60.59375 L 13.5625 -21.96875 C 13.5625 -18.65625 14.117188 -15.566406 15.234375 -12.703125 C 16.347656 -9.835938 17.875 -7.410156 19.8125 -5.421875 C 21.675781 -3.671875 23.523438 -2.40625 25.359375 -1.625 C 27.203125 -0.84375 29.238281 -0.453125 31.46875 -0.453125 C 35.144531 -0.453125 38.398438 -1.382812 41.234375 -3.25 C 44.066406 -5.125 46.296875 -7.6875 47.921875 -10.9375 C 49.554688 -14.195312 50.375 -17.875 50.375 -21.96875 L 50.375 -60.5 C 50.375 -61.34375 49.816406 -61.898438 48.703125 -62.171875 C 47.585938 -62.441406 46.609375 -62.609375 45.765625 -62.671875 L 44.671875 -62.671875 L 44.671875 -64.03125 L 57.421875 -64.03125 L 57.421875 -62.671875 L 56.34375 -62.671875 C 55.5625 -62.609375 54.597656 -62.441406 53.453125 -62.171875 C 52.304688 -61.898438 51.734375 -61.34375 51.734375 -60.5 L 51.734375 -21.96875 C 51.734375 -17.570312 50.859375 -13.65625 49.109375 -10.21875 C 47.359375 -6.78125 44.957031 -4.082031 41.90625 -2.125 C 38.863281 -0.164062 35.382812 0.8125 31.46875 0.8125 Z M 31.46875 0.8125 "/></g></g></g><g fill="#c95726" fill-opacity="1"><g transform="translate(164.311676, 235.312373)"><g><path d="M 6.328125 -8.625 L 6.328125 -7.515625 L 4.015625 -7.515625 L 4.015625 0 L 2.859375 0 L 2.859375 -7.515625 L 0.609375 -7.515625 L 0.609375 -8.625 Z M 6.328125 -8.625 "/></g></g></g><g fill="#c95726" fill-opacity="1"><g transform="translate(176.385408, 235.312373)"><g><path d="M 5.765625 -2.265625 L 2.4375 -2.265625 L 1.53125 0 L 0.375 0 L 4.15625 -8.984375 L 4.21875 -8.984375 L 7.984375 0 L 6.65625 0 Z M 5.359375 -3.265625 L 4.140625 -6.40625 L 2.859375 -3.265625 Z M 5.359375 -3.265625 "/></g></g></g><g fill="#c95726" fill-opacity="1"><g transform="translate(189.877047, 235.312373)"><g><path d="M 6.328125 -8.625 L 6.328125 -7.515625 L 4.015625 -7.515625 L 4.015625 0 L 2.859375 0 L 2.859375 -7.515625 L 0.609375 -7.515625 L 0.609375 -8.625 Z M 6.328125 -8.625 "/></g></g></g><g fill="#c95726" fill-opacity="1"><g transform="translate(201.950779, 235.312373)"><g><path d="M 2.28125 -3.046875 C 2.28125 -2.671875 2.375 -2.328125 2.5625 -2.015625 C 2.75 -1.710938 3 -1.472656 3.3125 -1.296875 C 3.625 -1.117188 3.96875 -1.03125 4.34375 -1.03125 C 4.75 -1.03125 5.109375 -1.113281 5.421875 -1.28125 C 5.742188 -1.457031 6 -1.703125 6.1875 -2.015625 C 6.375 -2.328125 6.46875 -2.671875 6.46875 -3.046875 L 6.46875 -8.625 L 7.59375 -8.625 L 7.59375 -3.015625 C 7.59375 -2.398438 7.445312 -1.851562 7.15625 -1.375 C 6.875 -0.90625 6.484375 -0.539062 5.984375 -0.28125 C 5.492188 -0.03125 4.945312 0.09375 4.34375 0.09375 C 3.75 0.09375 3.207031 -0.03125 2.71875 -0.28125 C 2.226562 -0.539062 1.835938 -0.90625 1.546875 -1.375 C 1.265625 -1.851562 1.125 -2.398438 1.125 -3.015625 L 1.125 -8.625 L 2.28125 -8.625 Z M 2.28125 -3.046875 "/></g></g></g><g fill="#c95726" fill-opacity="1"><g transform="translate(124.501245, 251.571899)"><g><path d="M 5.984375 0 L 3.953125 -3.1875 C 3.890625 -3.175781 3.796875 -3.171875 3.671875 -3.171875 L 2.390625 -3.171875 L 2.390625 0 L 1.234375 0 L 1.234375 -8.625 L 3.546875 -8.625 C 4.128906 -8.625 4.648438 -8.519531 5.109375 -8.3125 C 5.578125 -8.101562 5.941406 -7.796875 6.203125 -7.390625 C 6.460938 -6.992188 6.59375 -6.515625 6.59375 -5.953125 C 6.59375 -5.421875 6.472656 -4.929688 6.234375 -4.484375 C 6.003906 -4.035156 5.644531 -3.695312 5.15625 -3.46875 L 7.328125 0 Z M 3.640625 -4.296875 C 4.265625 -4.296875 4.710938 -4.457031 4.984375 -4.78125 C 5.265625 -5.101562 5.40625 -5.476562 5.40625 -5.90625 C 5.40625 -6.15625 5.347656 -6.398438 5.234375 -6.640625 C 5.117188 -6.890625 4.929688 -7.097656 4.671875 -7.265625 C 4.421875 -7.429688 4.109375 -7.515625 3.734375 -7.515625 L 2.390625 -7.515625 L 2.390625 -4.296875 Z M 3.640625 -4.296875 "/></g></g></g><g fill="#c95726" fill-opacity="1"><g transform="translate(137.504362, 251.571899)"><g><path d="M 6.84375 -8.625 L 6.84375 -7.515625 L 2.390625 -7.515625 L 2.390625 -4.890625 L 6.359375 -4.890625 L 6.359375 -3.78125 L 2.390625 -3.78125 L 2.390625 -1.125 L 7.015625 -1.125 L 7.015625 0 L 1.234375 0 L 1.234375 -8.625 Z M 6.84375 -8.625 "/></g></g></g><g fill="#c95726" fill-opacity="1"><g transform="translate(150.42408, 251.571899)"><g><path d="M 5.703125 -7.078125 C 5.390625 -7.242188 5.054688 -7.378906 4.703125 -7.484375 C 4.359375 -7.585938 4.03125 -7.640625 3.71875 -7.640625 C 3.25 -7.640625 2.875 -7.535156 2.59375 -7.328125 C 2.320312 -7.117188 2.1875 -6.832031 2.1875 -6.46875 C 2.1875 -6.101562 2.347656 -5.804688 2.671875 -5.578125 C 2.992188 -5.359375 3.453125 -5.132812 4.046875 -4.90625 C 4.492188 -4.75 4.867188 -4.578125 5.171875 -4.390625 C 5.484375 -4.203125 5.738281 -3.941406 5.9375 -3.609375 C 6.144531 -3.285156 6.25 -2.867188 6.25 -2.359375 C 6.25 -1.898438 6.132812 -1.484375 5.90625 -1.109375 C 5.675781 -0.734375 5.347656 -0.4375 4.921875 -0.21875 C 4.492188 -0.0078125 3.992188 0.09375 3.421875 0.09375 C 2.890625 0.09375 2.375 0.0078125 1.875 -0.15625 C 1.382812 -0.332031 0.953125 -0.550781 0.578125 -0.8125 L 1.09375 -1.734375 C 1.382812 -1.503906 1.738281 -1.3125 2.15625 -1.15625 C 2.570312 -1.007812 2.957031 -0.9375 3.3125 -0.9375 C 3.769531 -0.9375 4.171875 -1.050781 4.515625 -1.28125 C 4.867188 -1.519531 5.046875 -1.875 5.046875 -2.34375 C 5.046875 -2.738281 4.898438 -3.050781 4.609375 -3.28125 C 4.316406 -3.519531 3.910156 -3.742188 3.390625 -3.953125 C 2.898438 -4.140625 2.492188 -4.316406 2.171875 -4.484375 C 1.847656 -4.660156 1.570312 -4.898438 1.34375 -5.203125 C 1.113281 -5.515625 1 -5.898438 1 -6.359375 C 1 -7.035156 1.234375 -7.582031 1.703125 -8 C 2.179688 -8.414062 2.796875 -8.640625 3.546875 -8.671875 C 4.484375 -8.671875 5.347656 -8.4375 6.140625 -7.96875 Z M 5.703125 -7.078125 "/></g></g></g><g fill="#c95726" fill-opacity="1"><g transform="translate(162.497812, 251.571899)"><g><path d="M 6.328125 -8.625 L 6.328125 -7.515625 L 4.015625 -7.515625 L 4.015625 0 L 2.859375 0 L 2.859375 -7.515625 L 0.609375 -7.515625 L 0.609375 -8.625 Z M 6.328125 -8.625 "/></g></g></g><g fill="#c95726" fill-opacity="1"><g transform="translate(174.571544, 251.571899)"><g><path d="M 5.765625 -2.265625 L 2.4375 -2.265625 L 1.53125 0 L 0.375 0 L 4.15625 -8.984375 L 4.21875 -8.984375 L 7.984375 0 L 6.65625 0 Z M 5.359375 -3.265625 L 4.140625 -6.40625 L 2.859375 -3.265625 Z M 5.359375 -3.265625 "/></g></g></g><g fill="#c95726" fill-opacity="1"><g transform="translate(188.063183, 251.571899)"><g><path d="M 2.28125 -3.046875 C 2.28125 -2.671875 2.375 -2.328125 2.5625 -2.015625 C 2.75 -1.710938 3 -1.472656 3.3125 -1.296875 C 3.625 -1.117188 3.96875 -1.03125 4.34375 -1.03125 C 4.75 -1.03125 5.109375 -1.113281 5.421875 -1.28125 C 5.742188 -1.457031 6 -1.703125 6.1875 -2.015625 C 6.375 -2.328125 6.46875 -2.671875 6.46875 -3.046875 L 6.46875 -8.625 L 7.59375 -8.625 L 7.59375 -3.015625 C 7.59375 -2.398438 7.445312 -1.851562 7.15625 -1.375 C 6.875 -0.90625 6.484375 -0.539062 5.984375 -0.28125 C 5.492188 -0.03125 4.945312 0.09375 4.34375 0.09375 C 3.75 0.09375 3.207031 -0.03125 2.71875 -0.28125 C 2.226562 -0.539062 1.835938 -0.90625 1.546875 -1.375 C 1.265625 -1.851562 1.125 -2.398438 1.125 -3.015625 L 1.125 -8.625 L 2.28125 -8.625 Z M 2.28125 -3.046875 "/></g></g></g><g fill="#c95726" fill-opacity="1"><g transform="translate(201.924195, 251.571899)"><g><path d="M 5.984375 0 L 3.953125 -3.1875 C 3.890625 -3.175781 3.796875 -3.171875 3.671875 -3.171875 L 2.390625 -3.171875 L 2.390625 0 L 1.234375 0 L 1.234375 -8.625 L 3.546875 -8.625 C 4.128906 -8.625 4.648438 -8.519531 5.109375 -8.3125 C 5.578125 -8.101562 5.941406 -7.796875 6.203125 -7.390625 C 6.460938 -6.992188 6.59375 -6.515625 6.59375 -5.953125 C 6.59375 -5.421875 6.472656 -4.929688 6.234375 -4.484375 C 6.003906 -4.035156 5.644531 -3.695312 5.15625 -3.46875 L 7.328125 0 Z M 3.640625 -4.296875 C 4.265625 -4.296875 4.710938 -4.457031 4.984375 -4.78125 C 5.265625 -5.101562 5.40625 -5.476562 5.40625 -5.90625 C 5.40625 -6.15625 5.347656 -6.398438 5.234375 -6.640625 C 5.117188 -6.890625 4.929688 -7.097656 4.671875 -7.265625 C 4.421875 -7.429688 4.109375 -7.515625 3.734375 -7.515625 L 2.390625 -7.515625 L 2.390625 -4.296875 Z M 3.640625 -4.296875 "/></g></g></g><g fill="#c95726" fill-opacity="1"><g transform="translate(214.927313, 251.571899)"><g><path d="M 5.765625 -2.265625 L 2.4375 -2.265625 L 1.53125 0 L 0.375 0 L 4.15625 -8.984375 L 4.21875 -8.984375 L 7.984375 0 L 6.65625 0 Z M 5.359375 -3.265625 L 4.140625 -6.40625 L 2.859375 -3.265625 Z M 5.359375 -3.265625 "/></g></g></g><g fill="#c95726" fill-opacity="1"><g transform="translate(228.418952, 251.571899)"><g><path d="M 8.75 -8.625 L 8.75 0.28125 L 8.71875 0.28125 L 2.390625 -6.140625 L 2.40625 0 L 1.234375 0 L 1.234375 -8.875 L 1.296875 -8.875 L 7.625 -2.390625 L 7.59375 -8.625 Z M 8.75 -8.625 "/></g></g></g><g fill="#c95726" fill-opacity="1"><g transform="translate(243.542983, 251.571899)"><g><path d="M 6.328125 -8.625 L 6.328125 -7.515625 L 4.015625 -7.515625 L 4.015625 0 L 2.859375 0 L 2.859375 -7.515625 L 0.609375 -7.515625 L 0.609375 -8.625 Z M 6.328125 -8.625 "/></g></g></g></svg>